<svg width="30" height="26" viewBox="0 0 30 26" fill="none" xmlns="http://www.w3.org/2000/svg">
<path d="M22.6667 8C22.2889 8 21.9722 7.87222 21.7167 7.61667C21.4611 7.36111 21.3333 7.04444 21.3333 6.66667C21.3333 6.48889 21.3722 6.31667 21.45 6.15C21.5278 5.98333 21.6222 5.84444 21.7333 5.73333C22 5.46667 22.6111 5.16667 23.5667 4.83333C24.5222 4.5 25 4.33333 25 4.33333C24.8222 4.84444 24.6556 5.32222 24.5 5.76667C24.3667 6.14444 24.2167 6.51111 24.05 6.86667C23.8833 7.22222 23.7333 7.46667 23.6 7.6C23.4889 7.71111 23.35 7.80556 23.1833 7.88333C23.0167 7.96111 22.8444 8 22.6667 8ZM2.66667 25.3333C1.93333 25.3333 1.30556 25.0722 0.783333 24.55C0.261111 24.0278 0 23.4 0 22.6667V4C0 3.26667 0.261111 2.63889 0.783333 2.11667C1.30556 1.59444 1.93333 1.33333 2.66667 1.33333H10.6667C11.4 1.33333 12.0278 1.59444 12.55 2.11667C13.0722 2.63889 13.3333 3.26667 13.3333 4V14.9C13.5333 14.8333 13.7444 14.7778 13.9667 14.7333C14.1889 14.6889 14.4222 14.6667 14.6667 14.6667C15.7778 14.6667 16.7222 15.0556 17.5 15.8333C18.2778 16.6111 18.6667 17.5556 18.6667 18.6667V21.3333C18.6667 21.7111 18.7944 22.0278 19.05 22.2833C19.3056 22.5389 19.6222 22.6667 20 22.6667C20.3778 22.6667 20.6944 22.5389 20.95 22.2833C21.2056 22.0278 21.3333 21.7111 21.3333 21.3333V14.6667H20V12.7667C18.8 12.2556 17.8333 11.4556 17.1 10.3667C16.3667 9.27778 16 8.04444 16 6.66667C16 4.82222 16.65 3.25 17.95 1.95C19.25 0.65 20.8222 0 22.6667 0C24.5111 0 26.0833 0.65 27.3833 1.95C28.6833 3.25 29.3333 4.82222 29.3333 6.66667C29.3333 8.04444 28.9667 9.27778 28.2333 10.3667C27.5 11.4556 26.5333 12.2556 25.3333 12.7667V14.6667H24V21.3333C24 22.4444 23.6111 23.3889 22.8333 24.1667C22.0556 24.9444 21.1111 25.3333 20 25.3333C18.8889 25.3333 17.9444 24.9444 17.1667 24.1667C16.3889 23.3889 16 22.4444 16 21.3333V18.6667C16 18.2889 15.8722 17.9722 15.6167 17.7167C15.3611 17.4611 15.0444 17.3333 14.6667 17.3333C14.2889 17.3333 13.9722 17.4611 13.7167 17.7167C13.4611 17.9722 13.3333 18.2889 13.3333 18.6667V22.6667C13.3333 23.4 13.0722 24.0278 12.55 24.55C12.0278 25.0722 11.4 25.3333 10.6667 25.3333H2.66667ZM22.6667 10.6667C23.7778 10.6667 24.7222 10.2778 25.5 9.5C26.2778 8.72222 26.6667 7.77778 26.6667 6.66667C26.6667 5.55556 26.2778 4.61111 25.5 3.83333C24.7222 3.05556 23.7778 2.66667 22.6667 2.66667C21.5556 2.66667 20.6111 3.05556 19.8333 3.83333C19.0556 4.61111 18.6667 5.55556 18.6667 6.66667C18.6667 7.77778 19.0556 8.72222 19.8333 9.5C20.6111 10.2778 21.5556 10.6667 22.6667 10.6667ZM5.33333 9.33333V5.56667L3.76667 4H2.66667V6.66667L5.33333 9.33333ZM8 9.33333L10.6667 6.66667V4H9.56667L8 5.56667V9.33333ZM5.33333 16V12.2333L2.66667 9.56667V13.3333L5.33333 16ZM8 16L10.6667 13.3333V9.56667L8 12.2333V16ZM5.33333 22.6667V18.9L2.66667 16.2333V20L5.33333 22.6667ZM8 22.6667L10.6667 20V16.2333L8 18.9V22.6667Z" fill="#FFCB8A"/>
</svg>
