<svg width="27" height="16" viewBox="0 0 27 16" fill="none" xmlns="http://www.w3.org/2000/svg">
<path d="M2.66667 16C1.93333 16 1.30556 15.7389 0.783333 15.2167C0.261111 14.6944 0 14.0667 0 13.3333V2.66667C0 1.93333 0.261111 1.30556 0.783333 0.783333C1.30556 0.261111 1.93333 0 2.66667 0H6.66667V8H9.33333V0H12V8H14.6667V0H17.3333V8H20V0H24C24.7333 0 25.3611 0.261111 25.8833 0.783333C26.4056 1.30556 26.6667 1.93333 26.6667 2.66667V13.3333C26.6667 14.0667 26.4056 14.6944 25.8833 15.2167C25.3611 15.7389 24.7333 16 24 16H2.66667Z" fill="#FFCB8A"/>
</svg>
