<svg width="30" height="30" viewBox="0 0 30 30" fill="none" xmlns="http://www.w3.org/2000/svg">
<path d="M2.66667 29.3333V23.7333C1.88889 23.4667 1.25 22.9944 0.75 22.3167C0.25 21.6389 0 20.8667 0 20V17.3333H8V20C8 20.8667 7.75 21.6389 7.25 22.3167C6.75 22.9944 6.11111 23.4667 5.33333 23.7333V29.3333H2.66667ZM13.3333 29.3333V23.7333C12.5556 23.4667 11.9167 22.9944 11.4167 22.3167C10.9167 21.6389 10.6667 20.8667 10.6667 20V17.3333H18.6667V20C18.6667 20.8667 18.4167 21.6389 17.9167 22.3167C17.4167 22.9944 16.7778 23.4667 16 23.7333V29.3333H13.3333ZM24 29.3333V23.7333C23.2222 23.4667 22.5833 22.9944 22.0833 22.3167C21.5833 21.6389 21.3333 20.8667 21.3333 20V17.3333H29.3333V20C29.3333 20.8667 29.0833 21.6389 28.5833 22.3167C28.0833 22.9944 27.4444 23.4667 26.6667 23.7333V29.3333H24ZM0 14.6667V6.66667H2.66667V1.33333C2.66667 0.955556 2.79444 0.638889 3.05 0.383333C3.30556 0.127778 3.62222 0 4 0C4.37778 0 4.69444 0.127778 4.95 0.383333C5.20556 0.638889 5.33333 0.955556 5.33333 1.33333V6.66667H8V14.6667H0ZM10.6667 14.6667V6.66667H13.3333V1.33333C13.3333 0.955556 13.4611 0.638889 13.7167 0.383333C13.9722 0.127778 14.2889 0 14.6667 0C15.0444 0 15.3611 0.127778 15.6167 0.383333C15.8722 0.638889 16 0.955556 16 1.33333V6.66667H18.6667V14.6667H10.6667ZM21.3333 14.6667V6.66667H24V1.33333C24 0.955556 24.1278 0.638889 24.3833 0.383333C24.6389 0.127778 24.9556 0 25.3333 0C25.7111 0 26.0278 0.127778 26.2833 0.383333C26.5389 0.638889 26.6667 0.955556 26.6667 1.33333V6.66667H29.3333V14.6667H21.3333Z" fill="#FFCB8A"/>
</svg>
