<svg width="27" height="27" viewBox="0 0 27 27" fill="none" xmlns="http://www.w3.org/2000/svg">
<path d="M12 26.6667V21.1333L7.66667 25.4L5.8 23.5333L12 17.3333V14.6667H9.33333L3.13333 20.8667L1.26667 19L5.53333 14.6667H0V12H5.53333L1.26667 7.66667L3.13333 5.8L9.33333 12H12V9.33333L5.8 3.13333L7.66667 1.26667L12 5.53333V0H14.6667V5.53333L19 1.26667L20.8667 3.13333L14.6667 9.33333V12H17.3333L23.5333 5.8L25.4 7.66667L21.1333 12H26.6667V14.6667H21.1333L25.4 19L23.5333 20.8667L17.3333 14.6667H14.6667V17.3333L20.8667 23.5333L19 25.4L14.6667 21.1333V26.6667H12Z" fill="#FFCB8A"/>
</svg>
