<svg width="27" height="27" viewBox="0 0 27 27" fill="none" xmlns="http://www.w3.org/2000/svg">
<path d="M18 20C18.5556 20 19.0278 19.8056 19.4167 19.4167C19.8056 19.0278 20 18.5556 20 18C20 17.4444 19.8056 16.9722 19.4167 16.5833C19.0278 16.1944 18.5556 16 18 16C17.4444 16 16.9722 16.1944 16.5833 16.5833C16.1944 16.9722 16 17.4444 16 18C16 18.5556 16.1944 19.0278 16.5833 19.4167C16.9722 19.8056 17.4444 20 18 20ZM6 20C6.55556 20 7.02778 19.8056 7.41667 19.4167C7.80556 19.0278 8 18.5556 8 18C8 17.4444 7.80556 16.9722 7.41667 16.5833C7.02778 16.1944 6.55556 16 6 16C5.44444 16 4.97222 16.1944 4.58333 16.5833C4.19444 16.9722 4 17.4444 4 18C4 18.5556 4.19444 19.0278 4.58333 19.4167C4.97222 19.8056 5.44444 20 6 20ZM20 13.3333C18.1556 13.3333 16.5833 12.6833 15.2833 11.3833C13.9833 10.0833 13.3333 8.51111 13.3333 6.66667C13.3333 4.84444 13.9778 3.27778 15.2667 1.96667C16.5556 0.655556 18.1333 0 20 0C21.8444 0 23.4167 0.65 24.7167 1.95C26.0167 3.25 26.6667 4.82222 26.6667 6.66667C26.6667 8.51111 26.0167 10.0833 24.7167 11.3833C23.4167 12.6833 21.8444 13.3333 20 13.3333ZM19.3333 8H20.6667V2.66667H19.3333V8ZM20 10.6667C20.1778 10.6667 20.3333 10.6 20.4667 10.4667C20.6 10.3333 20.6667 10.1778 20.6667 10C20.6667 9.82222 20.6 9.66667 20.4667 9.53333C20.3333 9.4 20.1778 9.33333 20 9.33333C19.8222 9.33333 19.6667 9.4 19.5333 9.53333C19.4 9.66667 19.3333 9.82222 19.3333 10C19.3333 10.1778 19.4 10.3333 19.5333 10.4667C19.6667 10.6 19.8222 10.6667 20 10.6667ZM1.33333 26.6667C0.955556 26.6667 0.638889 26.5389 0.383333 26.2833C0.127778 26.0278 0 25.7111 0 25.3333V14.6667L2.8 6.66667C2.93333 6.26667 3.17222 5.94444 3.51667 5.7C3.86111 5.45556 4.24444 5.33333 4.66667 5.33333H10.7667C10.7 5.77778 10.6667 6.22222 10.6667 6.66667C10.6667 7.11111 10.7 7.55556 10.7667 8H5.13333L3.73333 12H12.3667C13.2556 13.2667 14.3667 14.25 15.7 14.95C17.0333 15.65 18.4667 16 20 16C20.6889 16 21.3722 15.9278 22.05 15.7833C22.7278 15.6389 23.3778 15.4111 24 15.1V25.3333C24 25.7111 23.8722 26.0278 23.6167 26.2833C23.3611 26.5389 23.0444 26.6667 22.6667 26.6667H21.3333C20.9556 26.6667 20.6389 26.5389 20.3833 26.2833C20.1278 26.0278 20 25.7111 20 25.3333V24H4V25.3333C4 25.7111 3.87222 26.0278 3.61667 26.2833C3.36111 26.5389 3.04444 26.6667 2.66667 26.6667H1.33333Z" fill="#FFCB8A"/>
</svg>
