<svg width="23" height="23" viewBox="0 0 23 23" fill="none" xmlns="http://www.w3.org/2000/svg">
<path d="M1.25 22.5C0.895833 22.5 0.598958 22.3802 0.359375 22.1406C0.119792 21.901 0 21.6042 0 21.25C0 20.8958 0.119792 20.599 0.359375 20.3594C0.598958 20.1198 0.895833 20 1.25 20H2.5V12.5H1.25C0.895833 12.5 0.598958 12.3802 0.359375 12.1406C0.119792 11.901 0 11.6042 0 11.25C0 10.8958 0.119792 10.599 0.359375 10.3594C0.598958 10.1198 0.895833 10 1.25 10H2.5V2.5H1.25C0.895833 2.5 0.598958 2.38021 0.359375 2.14062C0.119792 1.90104 0 1.60417 0 1.25C0 0.895833 0.119792 0.598958 0.359375 0.359375C0.598958 0.119792 0.895833 0 1.25 0H21.25C21.6042 0 21.901 0.119792 22.1406 0.359375C22.3802 0.598958 22.5 0.895833 22.5 1.25C22.5 1.60417 22.3802 1.90104 22.1406 2.14062C21.901 2.38021 21.6042 2.5 21.25 2.5H20V10H21.25C21.6042 10 21.901 10.1198 22.1406 10.3594C22.3802 10.599 22.5 10.8958 22.5 11.25C22.5 11.6042 22.3802 11.901 22.1406 12.1406C21.901 12.3802 21.6042 12.5 21.25 12.5H20V20H21.25C21.6042 20 21.901 20.1198 22.1406 20.3594C22.3802 20.599 22.5 20.8958 22.5 21.25C22.5 21.6042 22.3802 21.901 22.1406 22.1406C21.901 22.3802 21.6042 22.5 21.25 22.5H1.25ZM11.25 16.25C12.2917 16.25 13.1771 15.8906 13.9062 15.1719C14.6354 14.4531 15 13.5833 15 12.5625C15 11.75 14.7656 11.0521 14.2969 10.4688C13.8281 9.88542 12.8125 8.6875 11.25 6.875C9.6875 8.66667 8.67188 9.85938 8.20312 10.4531C7.73438 11.0469 7.5 11.75 7.5 12.5625C7.5 13.5833 7.86458 14.4531 8.59375 15.1719C9.32292 15.8906 10.2083 16.25 11.25 16.25Z" fill="#A6C8FF"/>
</svg>
