<svg width="13" height="11" viewBox="0 0 13 11" fill="none" xmlns="http://www.w3.org/2000/svg">
<path d="M0 10.5V8.86667C0 8.54583 0.0826389 8.24444 0.247917 7.9625C0.413194 7.68056 0.641667 7.46667 0.933333 7.32083C1.42917 7.06806 1.98819 6.85417 2.61042 6.67917C3.23264 6.50417 3.91806 6.41667 4.66667 6.41667C5.41528 6.41667 6.10069 6.50417 6.72292 6.67917C7.34514 6.85417 7.90417 7.06806 8.4 7.32083C8.69167 7.46667 8.92014 7.68056 9.08542 7.9625C9.25069 8.24444 9.33333 8.54583 9.33333 8.86667V10.5H0ZM1.16667 9.33333H8.16667V8.86667C8.16667 8.75972 8.13993 8.6625 8.08646 8.575C8.03299 8.4875 7.9625 8.41944 7.875 8.37083C7.525 8.19583 7.07535 8.02083 6.52604 7.84583C5.97674 7.67083 5.35694 7.58333 4.66667 7.58333C3.97639 7.58333 3.3566 7.67083 2.80729 7.84583C2.25799 8.02083 1.80833 8.19583 1.45833 8.37083C1.37083 8.41944 1.30035 8.4875 1.24688 8.575C1.1934 8.6625 1.16667 8.75972 1.16667 8.86667V9.33333ZM4.66667 5.83333C4.025 5.83333 3.47569 5.60486 3.01875 5.14792C2.56181 4.69097 2.33333 4.14167 2.33333 3.5H2.1875C2.1 3.5 2.02951 3.47326 1.97604 3.41979C1.92257 3.36632 1.89583 3.29583 1.89583 3.20833C1.89583 3.12083 1.92257 3.05035 1.97604 2.99688C2.02951 2.9434 2.1 2.91667 2.1875 2.91667H2.33333C2.33333 2.47917 2.44028 2.08542 2.65417 1.73542C2.86806 1.38542 3.15 1.10833 3.5 0.904167V1.45833C3.5 1.54583 3.52674 1.61632 3.58021 1.66979C3.63368 1.72326 3.70417 1.75 3.79167 1.75C3.87917 1.75 3.94965 1.72326 4.00313 1.66979C4.0566 1.61632 4.08333 1.54583 4.08333 1.45833V0.670833C4.17083 0.641667 4.26319 0.619792 4.36042 0.605208C4.45764 0.590625 4.55972 0.583333 4.66667 0.583333C4.77361 0.583333 4.87569 0.590625 4.97292 0.605208C5.07014 0.619792 5.1625 0.641667 5.25 0.670833V1.45833C5.25 1.54583 5.27674 1.61632 5.33021 1.66979C5.38368 1.72326 5.45417 1.75 5.54167 1.75C5.62917 1.75 5.69965 1.72326 5.75313 1.66979C5.8066 1.61632 5.83333 1.54583 5.83333 1.45833V0.904167C6.18333 1.10833 6.46528 1.38542 6.67917 1.73542C6.89306 2.08542 7 2.47917 7 2.91667H7.14583C7.23333 2.91667 7.30382 2.9434 7.35729 2.99688C7.41076 3.05035 7.4375 3.12083 7.4375 3.20833C7.4375 3.29583 7.41076 3.36632 7.35729 3.41979C7.30382 3.47326 7.23333 3.5 7.14583 3.5H7C7 4.14167 6.77153 4.69097 6.31458 5.14792C5.85764 5.60486 5.30833 5.83333 4.66667 5.83333ZM4.66667 4.66667C4.9875 4.66667 5.26215 4.55243 5.49062 4.32396C5.7191 4.09549 5.83333 3.82083 5.83333 3.5H3.5C3.5 3.82083 3.61424 4.09549 3.84271 4.32396C4.07118 4.55243 4.34583 4.66667 4.66667 4.66667ZM9.04167 7L8.95417 6.5625C8.89583 6.54306 8.83993 6.52118 8.78646 6.49687C8.73299 6.47257 8.68194 6.43611 8.63333 6.3875L8.225 6.53333L7.93333 6.00833L8.25417 5.71667C8.25417 5.6875 8.25417 5.65833 8.25417 5.62917C8.25417 5.6 8.25417 5.57083 8.25417 5.54167C8.25417 5.5125 8.25417 5.48333 8.25417 5.45417C8.25417 5.425 8.25417 5.39583 8.25417 5.36667L7.93333 5.075L8.225 4.55L8.63333 4.69583C8.67222 4.65694 8.72083 4.62292 8.77917 4.59375C8.8375 4.56458 8.89583 4.54028 8.95417 4.52083L9.04167 4.08333H9.625L9.7125 4.52083C9.77083 4.54028 9.82917 4.56458 9.8875 4.59375C9.94583 4.62292 9.99444 4.65694 10.0333 4.69583L10.4417 4.55L10.7333 5.075L10.4125 5.36667C10.4125 5.39583 10.4125 5.425 10.4125 5.45417C10.4125 5.48333 10.4125 5.5125 10.4125 5.54167C10.4125 5.57083 10.4125 5.6 10.4125 5.62917C10.4125 5.65833 10.4125 5.6875 10.4125 5.71667L10.7333 6.00833L10.4417 6.53333L10.0333 6.3875C9.98472 6.43611 9.93368 6.47257 9.88021 6.49687C9.82674 6.52118 9.77083 6.54306 9.7125 6.5625L9.625 7H9.04167ZM9.33333 5.97917C9.45 5.97917 9.55208 5.93542 9.63958 5.84792C9.72708 5.76042 9.77083 5.65833 9.77083 5.54167C9.77083 5.425 9.72708 5.32292 9.63958 5.23542C9.55208 5.14792 9.45 5.10417 9.33333 5.10417C9.21667 5.10417 9.11458 5.14792 9.02708 5.23542C8.93958 5.32292 8.89583 5.425 8.89583 5.54167C8.89583 5.65833 8.93958 5.76042 9.02708 5.84792C9.11458 5.93542 9.21667 5.97917 9.33333 5.97917ZM10.3833 4.08333L10.2667 3.47083C10.1792 3.44167 10.099 3.40521 10.026 3.36146C9.95312 3.31771 9.8875 3.26667 9.82917 3.20833L9.21667 3.4125L8.80833 2.7125L9.30417 2.275C9.28472 2.22639 9.275 2.1875 9.275 2.15833C9.275 2.12917 9.275 2.09028 9.275 2.04167C9.275 1.99306 9.275 1.95417 9.275 1.925C9.275 1.89583 9.28472 1.85694 9.30417 1.80833L8.80833 1.37083L9.21667 0.670833L9.82917 0.875C9.8875 0.816667 9.95312 0.765625 10.026 0.721875C10.099 0.678125 10.1792 0.641667 10.2667 0.6125L10.3833 0H11.2L11.3167 0.6125C11.4042 0.641667 11.4844 0.678125 11.5573 0.721875C11.6302 0.765625 11.6958 0.816667 11.7542 0.875L12.3667 0.670833L12.775 1.37083L12.2792 1.80833C12.2986 1.85694 12.3083 1.89583 12.3083 1.925C12.3083 1.95417 12.3083 1.99306 12.3083 2.04167C12.3083 2.09028 12.3083 2.12917 12.3083 2.15833C12.3083 2.1875 12.2986 2.22639 12.2792 2.275L12.775 2.7125L12.3667 3.4125L11.7542 3.20833C11.6958 3.26667 11.6302 3.31771 11.5573 3.36146C11.4844 3.40521 11.4042 3.44167 11.3167 3.47083L11.2 4.08333H10.3833ZM10.7917 2.77083C10.9958 2.77083 11.1684 2.70035 11.3094 2.55938C11.4503 2.4184 11.5208 2.24583 11.5208 2.04167C11.5208 1.8375 11.4503 1.66493 11.3094 1.52396C11.1684 1.38299 10.9958 1.3125 10.7917 1.3125C10.5875 1.3125 10.4149 1.38299 10.274 1.52396C10.133 1.66493 10.0625 1.8375 10.0625 2.04167C10.0625 2.24583 10.133 2.4184 10.274 2.55938C10.4149 2.70035 10.5875 2.77083 10.7917 2.77083Z" fill="#FFC880"/>
</svg>
