<svg width="65" height="49" viewBox="0 0 65 49" fill="none" xmlns="http://www.w3.org/2000/svg">
<path d="M64 21V13H80V21H64ZM68.8 49L56 39.4L60.8 33L73.6 42.6L68.8 49ZM60.8 1L56 -5.4L68.8 -15L73.6 -8.6L60.8 1ZM12 45V29H8C5.8 29 3.91667 28.2167 2.35 26.65C0.783333 25.0833 0 23.2 0 21V13C0 10.8 0.783333 8.91667 2.35 7.35C3.91667 5.78333 5.8 5 8 5H24L44 -7V41L24 29H20V45H12ZM36 26.8V7.2L26.2 13H8V21H26.2L36 26.8ZM48 30.4V3.6C49.8 5.2 51.25 7.15 52.35 9.45C53.45 11.75 54 14.2667 54 17C54 19.7333 53.45 22.25 52.35 24.55C51.25 26.85 49.8 28.8 48 30.4Z" fill="#E2E2E2"/>
</svg>
