<svg width="264" height="215" viewBox="0 0 264 215" fill="none" xmlns="http://www.w3.org/2000/svg">
<path d="M196.185 22.3795L176.3 -4.86618L143.946 -12.4139L170.433 -32.4688L177.517 -65.4469L197.402 -38.2012L229.757 -30.6535L203.269 -10.5986L196.185 22.3795ZM239.371 104.995L225.03 85.7498L202.057 80.1421L220.763 65.6752L226.036 42.2614L240.377 61.5061L263.35 67.1138L244.644 81.5807L239.371 104.995ZM96.0095 214.148L86.0648 185.445C84.5013 185.122 82.7911 184.611 80.9344 183.913C79.0777 183.215 77.5274 182.451 76.2836 181.623L51.8482 199.275L9.60065 151.211L29.1585 128.695C28.8029 127.022 28.4473 125.349 28.0917 123.676C27.7361 122.003 27.3806 120.331 27.025 118.658L-7.59535e-05 106.043L19.0457 44.9512L48.5482 51.1381C49.3475 49.8754 50.4533 48.5475 51.8655 47.1546C53.2778 45.7616 54.6323 44.5995 55.9292 43.6681L53.3396 13.4019L114.633 0.373571L124.578 29.0764C126.141 29.3998 127.851 29.9105 129.708 30.6086C131.565 31.3068 133.115 32.07 134.359 32.8985L158.794 15.2467L201.042 63.3104L181.484 85.8264C181.839 87.4993 182.195 89.1722 182.551 90.8451C182.906 92.5179 183.262 94.1908 183.617 95.8637L210.642 108.478L191.597 169.57L162.094 163.383C161.295 164.646 160.189 165.974 158.777 167.367C157.365 168.76 156.01 169.922 154.713 170.853L157.303 201.12L96.0095 214.148ZM113.322 144.901C123.537 142.729 131.443 137.224 137.038 128.385C142.633 119.546 144.32 109.899 142.097 99.4437C139.875 88.9882 134.41 80.861 125.704 75.0621C116.997 69.2632 107.536 67.4494 97.3206 69.6208C87.105 71.7922 79.1997 77.2973 73.6045 86.1361C68.0093 94.975 66.3229 104.622 68.5452 115.078C70.7676 125.533 76.2321 133.66 84.9387 139.459C93.6452 145.258 103.106 147.072 113.322 144.901Z" fill="#D9E2FF"/>
</svg>
