<svg width="24" height="24" viewBox="0 0 24 24" fill="none" xmlns="http://www.w3.org/2000/svg">
<path d="M1.33333 24C0.955556 24 0.638889 23.8722 0.383333 23.6167C0.127778 23.3611 0 23.0444 0 22.6667C0 22.2889 0.127778 21.9722 0.383333 21.7167C0.638889 21.4611 0.955556 21.3333 1.33333 21.3333H2.66667V13.3333H1.33333C0.955556 13.3333 0.638889 13.2056 0.383333 12.95C0.127778 12.6944 0 12.3778 0 12C0 11.6222 0.127778 11.3056 0.383333 11.05C0.638889 10.7944 0.955556 10.6667 1.33333 10.6667H2.66667V2.66667H1.33333C0.955556 2.66667 0.638889 2.53889 0.383333 2.28333C0.127778 2.02778 0 1.71111 0 1.33333C0 0.955556 0.127778 0.638889 0.383333 0.383333C0.638889 0.127778 0.955556 0 1.33333 0H22.6667C23.0444 0 23.3611 0.127778 23.6167 0.383333C23.8722 0.638889 24 0.955556 24 1.33333C24 1.71111 23.8722 2.02778 23.6167 2.28333C23.3611 2.53889 23.0444 2.66667 22.6667 2.66667H21.3333V10.6667H22.6667C23.0444 10.6667 23.3611 10.7944 23.6167 11.05C23.8722 11.3056 24 11.6222 24 12C24 12.3778 23.8722 12.6944 23.6167 12.95C23.3611 13.2056 23.0444 13.3333 22.6667 13.3333H21.3333V21.3333H22.6667C23.0444 21.3333 23.3611 21.4611 23.6167 21.7167C23.8722 21.9722 24 22.2889 24 22.6667C24 23.0444 23.8722 23.3611 23.6167 23.6167C23.3611 23.8722 23.0444 24 22.6667 24H1.33333ZM12 17.3333C13.1111 17.3333 14.0556 16.95 14.8333 16.1833C15.6111 15.4167 16 14.4889 16 13.4C16 12.5333 15.75 11.7889 15.25 11.1667C14.75 10.5444 13.6667 9.26667 12 7.33333C10.3333 9.24444 9.25 10.5167 8.75 11.15C8.25 11.7833 8 12.5333 8 13.4C8 14.4889 8.38889 15.4167 9.16667 16.1833C9.94444 16.95 10.8889 17.3333 12 17.3333Z" fill="#FFCB8A"/>
</svg>
