<svg width="25" height="16" viewBox="0 0 25 16" fill="none" xmlns="http://www.w3.org/2000/svg">
<path d="M24.5 12.25H22.75C22.75 11.1458 22.5794 10.059 22.2434 9.01862L23.9094 8.4805C24.3014 9.695 24.5 10.9637 24.5 12.25ZM24.3687 2.60575L22.2372 4.73725C21.9091 5.06546 21.4641 5.2499 21 5.25C20.6543 5.2491 20.3166 5.14593 20.0294 4.95349C19.7423 4.76106 19.5184 4.48795 19.3862 4.16857C19.2539 3.84919 19.2191 3.49781 19.2861 3.15867C19.3531 2.81954 19.5189 2.50782 19.7628 2.26275L21.8951 0.130375C21.6036 0.0483802 21.3028 0.00455577 21 0C19.0697 0 17.5 1.57063 17.5 3.5C17.5 4.1475 17.6881 4.74688 17.9961 5.2675L14.0166 9.247C13.483 8.92532 12.8722 8.75389 12.2491 8.75087C10.3197 8.75087 8.74912 10.3206 8.74912 12.2509C8.74912 14.1811 10.3197 15.7509 12.2491 15.7509C14.1785 15.7509 15.7491 14.1802 15.7491 12.2509C15.7491 11.6034 15.5619 11.0049 15.2539 10.4834L19.2334 6.50475C19.7668 6.82628 20.3772 6.9977 21 7.00088C22.9303 7.00088 24.5 5.43025 24.5 3.50088C24.4952 3.19808 24.451 2.89719 24.3687 2.60575ZM12.25 14C11.2849 14 10.5 13.2151 10.5 12.25C10.5 11.2849 11.2849 10.5 12.25 10.5C13.2151 10.5 14 11.2858 14 12.25C14 13.2142 13.2151 14 12.25 14ZM1.75 12.25H0C0 5.495 5.495 0 12.25 0C13.5363 0 14.805 0.198625 16.0186 0.590625L15.4814 2.25663C14.4373 1.91999 13.347 1.74904 12.25 1.75C6.46012 1.75 1.75 6.46012 1.75 12.25Z" fill="#FFC887"/>
</svg>
