<svg width="21" height="22" viewBox="0 0 21 22" fill="none" xmlns="http://www.w3.org/2000/svg">
<path d="M6.62754 14.375L14.1275 6.875M10.1045 0.875L12.7565 2.465L15.836 2.7365L17.0465 5.582L19.3775 7.61L18.6845 10.625L19.3775 13.6385L17.0465 15.668L15.836 18.5135L12.7565 18.785L10.1045 20.375L7.45404 18.785L4.37304 18.5135L3.16404 15.668L0.831543 13.6385L1.52454 10.625L0.831543 7.6115L3.16404 5.582L4.37304 2.7365L7.45404 2.465L10.1045 0.875ZM8.87754 8.375C8.87754 8.77282 8.71951 9.15436 8.4382 9.43566C8.1569 9.71696 7.77537 9.875 7.37754 9.875C6.97972 9.875 6.59819 9.71696 6.31688 9.43566C6.03558 9.15436 5.87754 8.77282 5.87754 8.375C5.87754 7.97718 6.03558 7.59564 6.31688 7.31434C6.59819 7.03304 6.97972 6.875 7.37754 6.875C7.77537 6.875 8.1569 7.03304 8.4382 7.31434C8.71951 7.59564 8.87754 7.97718 8.87754 8.375ZM14.8775 13.625C14.8775 14.0228 14.7195 14.4044 14.4382 14.6857C14.1569 14.967 13.7754 15.125 13.3775 15.125C12.9797 15.125 12.5982 14.967 12.3169 14.6857C12.0356 14.4044 11.8775 14.0228 11.8775 13.625C11.8775 13.2272 12.0356 12.8456 12.3169 12.5643C12.5982 12.283 12.9797 12.125 13.3775 12.125C13.7754 12.125 14.1569 12.283 14.4382 12.5643C14.7195 12.8456 14.8775 13.2272 14.8775 13.625Z" stroke="#D9E2FF" stroke-width="1.5"/>
</svg>
