<svg width="21" height="22" viewBox="0 0 21 22" fill="none" xmlns="http://www.w3.org/2000/svg">
<path d="M6.62754 14.3745L14.1275 6.87451M10.1045 0.874512L12.7565 2.46451L15.836 2.73601L17.0465 5.58151L19.3775 7.60951L18.6845 10.6245L19.3775 13.638L17.0465 15.6675L15.836 18.513L12.7565 18.7845L10.1045 20.3745L7.45404 18.7845L4.37304 18.513L3.16404 15.6675L0.831543 13.638L1.52454 10.6245L0.831543 7.61101L3.16404 5.58151L4.37304 2.73601L7.45404 2.46451L10.1045 0.874512ZM8.87754 8.37451C8.87754 8.77234 8.71951 9.15387 8.4382 9.43517C8.1569 9.71648 7.77537 9.87451 7.37754 9.87451C6.97972 9.87451 6.59819 9.71648 6.31688 9.43517C6.03558 9.15387 5.87754 8.77234 5.87754 8.37451C5.87754 7.97669 6.03558 7.59516 6.31688 7.31385C6.59819 7.03255 6.97972 6.87451 7.37754 6.87451C7.77537 6.87451 8.1569 7.03255 8.4382 7.31385C8.71951 7.59516 8.87754 7.97669 8.87754 8.37451ZM14.8775 13.6245C14.8775 14.0223 14.7195 14.4039 14.4382 14.6852C14.1569 14.9665 13.7754 15.1245 13.3775 15.1245C12.9797 15.1245 12.5982 14.9665 12.3169 14.6852C12.0356 14.4039 11.8775 14.0223 11.8775 13.6245C11.8775 13.2267 12.0356 12.8452 12.3169 12.5639C12.5982 12.2825 12.9797 12.1245 13.3775 12.1245C13.7754 12.1245 14.1569 12.2825 14.4382 12.5639C14.7195 12.8452 14.8775 13.2267 14.8775 13.6245Z" stroke="#D7C3AE" stroke-width="1.5"/>
</svg>
