<svg width="18" height="18" viewBox="0 0 18 18" fill="none" xmlns="http://www.w3.org/2000/svg">
<path d="M3.58333 16.5C4.26848 16.5 4.92556 16.2278 5.41003 15.7434C5.89449 15.2589 6.16667 14.6018 6.16667 13.9167C6.16667 13.2315 5.89449 12.5744 5.41003 12.09C4.92556 11.6055 4.26848 11.3333 3.58333 11.3333C2.89819 11.3333 2.24111 11.6055 1.75664 12.09C1.27217 12.5744 1 13.2315 1 13.9167C1 14.6018 1.27217 15.2589 1.75664 15.7434C2.24111 16.2278 2.89819 16.5 3.58333 16.5ZM3.58333 1C5.27957 1 6.95921 1.3341 8.52633 1.98322C10.0934 2.63235 11.5174 3.58378 12.7168 4.7832C13.9162 5.98263 14.8677 7.40655 15.5168 8.97367C16.1659 10.5408 16.5 12.2204 16.5 13.9167H11.3372C11.3372 11.8602 10.5203 9.88798 9.06615 8.43385C7.61202 6.97972 5.63979 6.16279 3.58333 6.16279V1Z" fill="#FFC887" stroke="#FFC887" stroke-width="2" stroke-linecap="round" stroke-linejoin="round"/>
</svg>
